# ProBuilder 4.4.0
# https://unity3d.com/unity/features/worldbuilding/probuilder
# 3/13/2021 4:25:14 PM

mtllib ./wall_2x2_doorhole.mtl
o wall_2x2_doorhole

g wall_2x2_doorhole
v 0 0.5 0
v -2 0.5 0
v 0 0.5 -0.25
v -2 0.5 -0.25
v 0 0 0
v -0.25 0 0
v -0.5 0 0
v -0.75 0 0
v -1 0 0
v -1.25 0 0
v -1.5 0 0
v -1.75 0 0
v -2 0 0
v -2 0 -0.03125
v -2 0 -0.0625
v -2 0 -0.09375
v -2 0 -0.125
v -2 0 -0.15625
v -2 0 -0.1875
v -2 0 -0.21875
v -2 0 -0.25
v -1.75 0 -0.25
v -1.5 0 -0.25
v -1.25 0 -0.25
v -1 0 -0.25
v -0.75 0 -0.25
v -0.5 0 -0.25
v -0.25 0 -0.25
v 0 0 -0.25
v 0 0 -0.21875
v 0 0 -0.1875
v 0 0 -0.15625
v 0 0 -0.125
v 0 0 -0.09375
v 0 0 -0.0625
v 0 0 -0.03125
v -1 0 -0.21875
v -0.75 0 -0.21875
v -1 0 -0.1875
v -0.75 0 -0.1875
v -0.5 0 -0.1875
v -0.5 0 -0.21875
v -1 0 -0.15625
v -0.75 0 -0.15625
v -1 0 -0.125
v -0.75 0 -0.125
v -0.5 0 -0.125
v -0.5 0 -0.15625
v -0.25 0 -0.15625
v -0.25 0 -0.1875
v -0.25 0 -0.125
v -0.25 -2.5 -0.125
v 0 -2.5 -0.125
v 0 -2.5 -0.15625
v -0.25 -2.5 -0.15625
v -0.25 0 -0.21875
v -0.25 -2.5 -0.1875
v 0 -2.5 -0.1875
v 0 -2.5 -0.21875
v 0 -2.5 -0.25
v -0.25 -2.5 -0.25
v -0.25 -2.5 -0.21875
v -2 -2.5 -0.25
v -2 -2.5 -0.21875
v -1.75 -2.5 -0.21875
v -1.75 -2.5 -0.25
v -2 -2.5 -0.1875
v -1.75 -2.5 -0.1875
v -1.75 0 -0.1875
v -1.5 0 -0.1875
v -1.5 0 -0.21875
v -1.75 0 -0.21875
v -2 -2.5 -0.15625
v -1.75 -2.5 -0.15625
v -2 -2.5 -0.125
v -1.75 -2.5 -0.125
v -1.75 0 -0.125
v -1.5 0 -0.125
v -1.5 0 -0.15625
v -1.75 0 -0.15625
v -1.25 0 -0.15625
v -1.25 0 -0.1875
v -1.25 0 -0.125
v -1.25 0 -0.21875
v -2 -2.5 -0.09375
v -1.75 -2.5 -0.09375
v -2 -2.5 -0.0625
v -1.75 -2.5 -0.0625
v -1.75 0 -0.0625
v -1.5 0 -0.0625
v -1.5 0 -0.09375
v -1.75 0 -0.09375
v -2 -2.5 -0.03125
v -1.75 -2.5 -0.03125
v -2 -2.5 0
v -1.75 -2.5 0
v -1.5 0 -0.03125
v -1.75 0 -0.03125
v -1.25 0 -0.03125
v -1.25 0 -0.0625
v -1 0 -0.03125
v -1 0 -0.0625
v -1.25 0 -0.09375
v -1 0 -0.09375
v -0.75 0 -0.09375
v -0.75 0 -0.0625
v -0.5 0 -0.0625
v -0.5 0 -0.09375
v -0.75 0 -0.03125
v -0.5 0 -0.03125
v -0.25 0 -0.03125
v -0.25 0 -0.0625
v -0.25 -2.5 0
v 0 -2.5 0
v 0 -2.5 -0.03125
v -0.25 -2.5 -0.03125
v -0.25 0 -0.09375
v -0.25 -2.5 -0.0625
v 0 -2.5 -0.0625
v 0 -2.5 -0.09375
v -0.25 -2.5 -0.09375

vt 0 0
vt 2 0
vt 0 -0.25
vt 2 -0.25
vt 0 0.5
vt -0.25 0
vt -0.5 0
vt -0.75 0
vt -1 0
vt -1.25 0
vt -1.5 0
vt -1.75 0
vt -2 0
vt -2 0.5
vt -0.03125 0
vt -0.0625 0
vt -0.09375 0
vt -0.125 0
vt -0.15625 0
vt -0.1875 0
vt -0.21875 0
vt -0.25 0.5
vt 2 0.5
vt 1.75 0
vt 1.5 0
vt 1.25 0
vt 1 0
vt 0.75 0
vt 0.5 0
vt 0.25 0
vt 0.25 0.5
vt 0.21875 0
vt 0.1875 0
vt 0.15625 0
vt 0.125 0
vt 0.09375 0
vt 0.0625 0
vt 0.03125 0
vt -1 -0.25
vt -1 -0.21875
vt -0.75 -0.21875
vt -0.75 -0.25
vt -1 -0.1875
vt -0.75 -0.1875
vt -0.5 -0.1875
vt -0.5 -0.21875
vt -0.5 -0.25
vt -1 -0.15625
vt -0.75 -0.15625
vt -1 -0.125
vt -0.75 -0.125
vt -0.5 -0.125
vt -0.5 -0.15625
vt -0.25 -0.15625
vt -0.25 -0.1875
vt -0.25 -0.125
vt 0 -0.125
vt 0 -0.15625
vt -0.25 -0.21875
vt -0.25 -0.25
vt 0 -0.1875
vt 0 -0.21875
vt -2 -0.25
vt -2 -0.21875
vt -1.75 -0.21875
vt -1.75 -0.25
vt -2 -0.1875
vt -1.75 -0.1875
vt -1.5 -0.1875
vt -1.5 -0.21875
vt -1.5 -0.25
vt -2 -0.15625
vt -1.75 -0.15625
vt -2 -0.125
vt -1.75 -0.125
vt -1.5 -0.125
vt -1.5 -0.15625
vt -1.25 -0.15625
vt -1.25 -0.1875
vt -1.25 -0.125
vt -1.25 -0.21875
vt -1.25 -0.25
vt -2 -0.09375
vt -1.75 -0.09375
vt -2 -0.0625
vt -1.75 -0.0625
vt -1.5 -0.0625
vt -1.5 -0.09375
vt -2 -0.03125
vt -1.75 -0.03125
vt -1.5 -0.03125
vt -1.25 -0.03125
vt -1.25 -0.0625
vt -1 -0.03125
vt -1 -0.0625
vt -1.25 -0.09375
vt -1 -0.09375
vt -0.75 -0.09375
vt -0.75 -0.0625
vt -0.5 -0.0625
vt -0.5 -0.09375
vt -0.75 -0.03125
vt -0.5 -0.03125
vt -0.25 -0.03125
vt -0.25 -0.0625
vt 0 -0.03125
vt -0.25 -0.09375
vt 0 -0.0625
vt 0 -0.09375
vt -0.25 -2.5
vt -0.21875 -2.5
vt 0.21875 -2.5
vt 0.25 -2.5
vt 0 -2.5
vt -0.1875 -2.5
vt 0.1875 -2.5
vt -0.15625 -2.5
vt 0.15625 -2.5
vt -0.125 -2.5
vt 0.125 -2.5
vt -0.09375 -2.5
vt 0.09375 -2.5
vt -0.0625 -2.5
vt 0.0625 -2.5
vt -0.03125 -2.5
vt 0.03125 -2.5
vt 1.75 -2.5
vt 2 -2.5
vt -2 -2.5
vt -1.75 -2.5

vn 0 1 0
vn 0 0 1
vn -1 0 0
vn 0 0 -1
vn 1 0 0
vn 0 -1 0

usemtl ProBuilderDefault
f 2/14/2 13/13/2 12/12/2
f 2/14/2 12/12/2 11/11/2
f 2/14/2 11/11/2 10/10/2
f 2/14/2 10/10/2 9/9/2
f 6/6/2 5/1/2 1/5/2
f 7/7/2 6/6/2 1/5/2
f 8/8/2 7/7/2 1/5/2
f 9/9/2 8/8/2 1/5/2
f 2/14/2 9/9/2 1/5/2
f 4/22/3 21/6/3 20/21/3
f 4/22/3 20/21/3 19/20/3
f 4/22/3 19/20/3 18/19/3
f 4/22/3 18/19/3 17/18/3
f 14/15/3 13/1/3 2/5/3
f 15/16/3 14/15/3 2/5/3
f 16/17/3 15/16/3 2/5/3
f 17/18/3 16/17/3 2/5/3
f 4/22/3 17/18/3 2/5/3
f 3/5/4 25/27/4 4/23/4
f 3/5/4 26/28/4 25/27/4
f 3/5/4 27/29/4 26/28/4
f 3/5/4 28/30/4 27/29/4
f 3/5/4 29/1/4 28/30/4
f 25/27/4 24/26/4 4/23/4
f 24/26/4 23/25/4 4/23/4
f 23/25/4 22/24/4 4/23/4
f 22/24/4 21/2/4 4/23/4
f 1/5/5 33/35/5 3/31/5
f 1/5/5 34/36/5 33/35/5
f 1/5/5 35/37/5 34/36/5
f 1/5/5 36/38/5 35/37/5
f 1/5/5 5/1/5 36/38/5
f 33/35/5 32/34/5 3/31/5
f 32/34/5 31/33/5 3/31/5
f 31/33/5 30/32/5 3/31/5
f 30/32/5 29/30/5 3/31/5
f 64/64/6 63/63/6 65/65/6
f 63/63/6 66/66/6 65/65/6
f 67/67/6 64/64/6 68/68/6
f 64/64/6 65/65/6 68/68/6
f 73/72/6 67/67/6 74/73/6
f 67/67/6 68/68/6 74/73/6
f 75/74/6 73/72/6 76/75/6
f 73/72/6 74/73/6 76/75/6
f 85/83/6 75/74/6 86/84/6
f 75/74/6 76/75/6 86/84/6
f 87/85/6 85/83/6 88/86/6
f 85/83/6 86/84/6 88/86/6
f 93/89/6 87/85/6 94/90/6
f 87/85/6 88/86/6 94/90/6
f 95/13/6 93/89/6 96/12/6
f 93/89/6 94/90/6 96/12/6
f 62/59/6 61/60/6 59/62/6
f 61/60/6 60/3/6 59/62/6
f 57/55/6 62/59/6 58/61/6
f 62/59/6 59/62/6 58/61/6
f 55/54/6 57/55/6 54/58/6
f 57/55/6 58/61/6 54/58/6
f 52/56/6 55/54/6 53/57/6
f 55/54/6 54/58/6 53/57/6
f 121/107/6 52/56/6 120/109/6
f 52/56/6 53/57/6 120/109/6
f 118/105/6 121/107/6 119/108/6
f 121/107/6 120/109/6 119/108/6
f 116/104/6 118/105/6 115/106/6
f 118/105/6 119/108/6 115/106/6
f 113/6/6 116/104/6 114/1/6
f 116/104/6 115/106/6 114/1/6
f 4/4/1 2/2/1 1/1/1
f 1/1/1 3/3/1 4/4/1
f 38/41/6 37/40/6 25/39/6
f 25/39/6 26/42/6 38/41/6
f 40/44/6 39/43/6 37/40/6
f 37/40/6 38/41/6 40/44/6
f 41/45/6 40/44/6 38/41/6
f 38/41/6 42/46/6 41/45/6
f 42/46/6 38/41/6 26/42/6
f 26/42/6 27/47/6 42/46/6
f 44/49/6 43/48/6 39/43/6
f 39/43/6 40/44/6 44/49/6
f 46/51/6 45/50/6 43/48/6
f 43/48/6 44/49/6 46/51/6
f 47/52/6 46/51/6 44/49/6
f 44/49/6 48/53/6 47/52/6
f 48/53/6 44/49/6 40/44/6
f 40/44/6 41/45/6 48/53/6
f 49/54/6 48/53/6 41/45/6
f 41/45/6 50/55/6 49/54/6
f 51/56/6 47/52/6 48/53/6
f 48/53/6 49/54/6 51/56/6
f 56/59/6 42/46/6 27/47/6
f 27/47/6 28/60/6 56/59/6
f 50/55/6 41/45/6 42/46/6
f 42/46/6 56/59/6 50/55/6
f 70/69/6 69/68/6 72/65/6
f 72/65/6 71/70/6 70/69/6
f 71/70/6 72/65/6 22/66/6
f 22/66/6 23/71/6 71/70/6
f 78/76/6 77/75/6 80/73/6
f 80/73/6 79/77/6 78/76/6
f 79/77/6 80/73/6 69/68/6
f 69/68/6 70/69/6 79/77/6
f 81/78/6 79/77/6 70/69/6
f 70/69/6 82/79/6 81/78/6
f 83/80/6 78/76/6 79/77/6
f 79/77/6 81/78/6 83/80/6
f 45/50/6 83/80/6 81/78/6
f 81/78/6 43/48/6 45/50/6
f 43/48/6 81/78/6 82/79/6
f 82/79/6 39/43/6 43/48/6
f 84/81/6 71/70/6 23/71/6
f 23/71/6 24/82/6 84/81/6
f 82/79/6 70/69/6 71/70/6
f 71/70/6 84/81/6 82/79/6
f 39/43/6 82/79/6 84/81/6
f 84/81/6 37/40/6 39/43/6
f 37/40/6 84/81/6 24/82/6
f 24/82/6 25/39/6 37/40/6
f 90/87/6 89/86/6 92/84/6
f 92/84/6 91/88/6 90/87/6
f 91/88/6 92/84/6 77/75/6
f 77/75/6 78/76/6 91/88/6
f 11/11/6 12/12/6 98/90/6
f 98/90/6 97/91/6 11/11/6
f 97/91/6 98/90/6 89/86/6
f 89/86/6 90/87/6 97/91/6
f 99/92/6 97/91/6 90/87/6
f 90/87/6 100/93/6 99/92/6
f 10/10/6 11/11/6 97/91/6
f 97/91/6 99/92/6 10/10/6
f 9/9/6 10/10/6 99/92/6
f 99/92/6 101/94/6 9/9/6
f 101/94/6 99/92/6 100/93/6
f 100/93/6 102/95/6 101/94/6
f 103/96/6 91/88/6 78/76/6
f 78/76/6 83/80/6 103/96/6
f 100/93/6 90/87/6 91/88/6
f 91/88/6 103/96/6 100/93/6
f 102/95/6 100/93/6 103/96/6
f 103/96/6 104/97/6 102/95/6
f 104/97/6 103/96/6 83/80/6
f 83/80/6 45/50/6 104/97/6
f 105/98/6 104/97/6 45/50/6
f 45/50/6 46/51/6 105/98/6
f 106/99/6 102/95/6 104/97/6
f 104/97/6 105/98/6 106/99/6
f 107/100/6 106/99/6 105/98/6
f 105/98/6 108/101/6 107/100/6
f 108/101/6 105/98/6 46/51/6
f 46/51/6 47/52/6 108/101/6
f 109/102/6 101/94/6 102/95/6
f 102/95/6 106/99/6 109/102/6
f 8/8/6 9/9/6 101/94/6
f 101/94/6 109/102/6 8/8/6
f 7/7/6 8/8/6 109/102/6
f 109/102/6 110/103/6 7/7/6
f 110/103/6 109/102/6 106/99/6
f 106/99/6 107/100/6 110/103/6
f 111/104/6 110/103/6 107/100/6
f 107/100/6 112/105/6 111/104/6
f 6/6/6 7/7/6 110/103/6
f 110/103/6 111/104/6 6/6/6
f 117/107/6 108/101/6 47/52/6
f 47/52/6 51/56/6 117/107/6
f 112/105/6 107/100/6 108/101/6
f 108/101/6 117/107/6 112/105/6
f 62/111/3 56/21/3 28/6/3
f 28/6/3 61/110/3 62/111/3
f 60/113/5 29/30/5 30/32/5
f 30/32/5 59/112/5 60/113/5
f 61/113/4 28/30/4 29/1/4
f 29/1/4 60/114/4 61/113/4
f 57/115/3 50/20/3 56/21/3
f 56/21/3 62/111/3 57/115/3
f 59/112/5 30/32/5 31/33/5
f 31/33/5 58/116/5 59/112/5
f 55/117/3 49/19/3 50/20/3
f 50/20/3 57/115/3 55/117/3
f 58/116/5 31/33/5 32/34/5
f 32/34/5 54/118/5 58/116/5
f 52/119/3 51/18/3 49/19/3
f 49/19/3 55/117/3 52/119/3
f 54/118/5 32/34/5 33/35/5
f 33/35/5 53/120/5 54/118/5
f 121/121/3 117/17/3 51/18/3
f 51/18/3 52/119/3 121/121/3
f 53/120/5 33/35/5 34/36/5
f 34/36/5 120/122/5 53/120/5
f 118/123/3 112/16/3 117/17/3
f 117/17/3 121/121/3 118/123/3
f 120/122/5 34/36/5 35/37/5
f 35/37/5 119/124/5 120/122/5
f 116/125/3 111/15/3 112/16/3
f 112/16/3 118/123/3 116/125/3
f 119/124/5 35/37/5 36/38/5
f 36/38/5 115/126/5 119/124/5
f 113/114/3 6/1/3 111/15/3
f 111/15/3 116/125/3 113/114/3
f 114/114/2 5/1/2 6/6/2
f 6/6/2 113/110/2 114/114/2
f 115/126/5 36/38/5 5/1/5
f 5/1/5 114/114/5 115/126/5
f 64/111/3 20/21/3 21/6/3
f 21/6/3 63/110/3 64/111/3
f 66/113/5 22/30/5 72/32/5
f 72/32/5 65/112/5 66/113/5
f 63/128/4 21/2/4 22/24/4
f 22/24/4 66/127/4 63/128/4
f 67/115/3 19/20/3 20/21/3
f 20/21/3 64/111/3 67/115/3
f 65/112/5 72/32/5 69/33/5
f 69/33/5 68/116/5 65/112/5
f 73/117/3 18/19/3 19/20/3
f 19/20/3 67/115/3 73/117/3
f 68/116/5 69/33/5 80/34/5
f 80/34/5 74/118/5 68/116/5
f 75/119/3 17/18/3 18/19/3
f 18/19/3 73/117/3 75/119/3
f 74/118/5 80/34/5 77/35/5
f 77/35/5 76/120/5 74/118/5
f 85/121/3 16/17/3 17/18/3
f 17/18/3 75/119/3 85/121/3
f 76/120/5 77/35/5 92/36/5
f 92/36/5 86/122/5 76/120/5
f 87/123/3 15/16/3 16/17/3
f 16/17/3 85/121/3 87/123/3
f 86/122/5 92/36/5 89/37/5
f 89/37/5 88/124/5 86/122/5
f 93/125/3 14/15/3 15/16/3
f 15/16/3 87/123/3 93/125/3
f 88/124/5 89/37/5 98/38/5
f 98/38/5 94/126/5 88/124/5
f 95/114/3 13/1/3 14/15/3
f 14/15/3 93/125/3 95/114/3
f 96/130/2 12/12/2 13/13/2
f 13/13/2 95/129/2 96/130/2
f 94/126/5 98/38/5 12/1/5
f 12/1/5 96/114/5 94/126/5

