# ProBuilder 4.4.0
# https://unity3d.com/unity/features/worldbuilding/probuilder
# 3/13/2021 2:19:08 PM

mtllib ./Cube_(5).mtl
o Cube (5)

g Cube (5)
v 0 0 0
v -0.35 0 0
v 0 0.1 0
v -0.35 0.1 0
v -0.35 0 -1
v -0.35 0.1 -1
v 0 0 -1
v 0 0.1 -1
v -0.03399658 0.05600023 -0.9570007
v -0.3339996 0.05600023 -0.9570007
v -0.03399658 1.556 -0.9570007
v -0.3339996 1.556 -0.9570007
v -0.3339996 0.05600023 -1.057007
v -0.3339996 1.556 -1.057007
v -0.03399658 0.05600023 -1.057007
v -0.03399658 1.556 -1.057007
v 0 1.525 0
v -0.3500061 1.525 0
v 0 1.625 0
v -0.3500061 1.625 0
v -0.3500061 1.525 -1
v -0.3500061 1.625 -1
v 0 1.525 -1
v 0 1.625 -1
v -0.03399658 0.05600023 0.005004883
v -0.3339996 0.05600023 0.005004883
v -0.03399658 1.556 0.005004883
v -0.3339996 1.556 0.005004883
v -0.3339996 0.05600023 -0.09500122
v -0.3339996 1.556 -0.09500122
v -0.03399658 0.05600023 -0.09500122
v -0.03399658 1.556 -0.09500122
v -0.05599976 -0.9569998 0.4649963
v -0.05599976 -0.7069998 0.4649963
v -0.1184998 -0.9569998 0.4649963
v -0.1184998 -0.7069998 0.4649963
v -0.1184998 -0.4569998 0.4649963
v -0.05599976 -0.4569998 0.4649963
v -0.1809998 -0.9569998 0.4649963
v -0.1809998 -0.7069998 0.4649963
v -0.2434998 -0.9569998 0.4649963
v -0.3059998 -0.9569998 0.4649963
v -0.3059998 -0.7069998 0.4649963
v -0.2434998 -0.7069998 0.4649963
v -0.3059998 -0.4569998 0.4649963
v -0.2434998 -0.4569998 0.4649963
v -0.1809998 -0.4569998 0.4649963
v -0.1809998 -0.2069998 0.4649963
v -0.3059998 -0.2069998 0.4649963
v -0.2434998 -0.2069998 0.4649963
v -0.3059998 0.04300022 0.4649963
v -0.2434998 0.04300022 0.4649963
v -0.1809998 0.04300022 0.4649963
v -0.05599976 -0.2069998 0.4649963
v -0.1184998 -0.2069998 0.4649963
v -0.1184998 0.04300022 0.4649963
v -0.05599976 0.04300022 0.4649963
v -0.3059998 -0.9569998 -0.03500366
v -0.3059998 -0.7069998 -0.03500366
v -0.3059998 -0.9569998 -0.5350037
v -0.3059998 -0.9569998 -1.035004
v -0.3059998 -0.9569998 -1.535004
v -0.3059998 -0.7069998 -1.535004
v -0.3059998 -0.7069998 -1.035004
v -0.3059998 -0.7069998 -0.5350037
v -0.3059998 -0.4569998 -1.035004
v -0.3059998 -0.4569998 -1.535004
v -0.3059998 -0.2069998 -1.535004
v -0.3059998 0.04300022 -1.535004
v -0.3059998 0.04300022 -1.035004
v -0.3059998 -0.2069998 -1.035004
v -0.3059998 0.04300022 -0.5350037
v -0.3059998 -0.2069998 -0.5350037
v -0.3059998 -0.4569998 -0.03500366
v -0.3059998 -0.4569998 -0.5350037
v -0.3059998 0.04300022 -0.03500366
v -0.3059998 -0.2069998 -0.03500366
v -0.2434998 -0.7069998 -1.535004
v -0.2434998 -0.9569998 -1.535004
v -0.2434998 -0.4569998 -1.535004
v -0.05599976 -0.9569998 -1.535004
v -0.05599976 -0.7069998 -1.535004
v -0.1184998 -0.7069998 -1.535004
v -0.1184998 -0.9569998 -1.535004
v -0.05599976 -0.4569998 -1.535004
v -0.1184998 -0.4569998 -1.535004
v -0.1809998 -0.4569998 -1.535004
v -0.1809998 -0.7069998 -1.535004
v -0.1809998 -0.9569998 -1.535004
v -0.05599976 -0.2069998 -1.535004
v -0.1184998 -0.2069998 -1.535004
v -0.05599976 0.04300022 -1.535004
v -0.1184998 0.04300022 -1.535004
v -0.1809998 0.04300022 -1.535004
v -0.1809998 -0.2069998 -1.535004
v -0.2434998 -0.2069998 -1.535004
v -0.2434998 0.04300022 -1.535004
v -0.05599976 -0.9569998 -0.5350037
v -0.05599976 -0.7069998 -0.5350037
v -0.05599976 -0.7069998 -1.035004
v -0.05599976 -0.9569998 -1.035004
v -0.05599976 -0.4569998 -0.5350037
v -0.05599976 -0.4569998 -1.035004
v -0.05599976 -0.7069998 -0.03500366
v -0.05599976 -0.9569998 -0.03500366
v -0.05599976 -0.4569998 -0.03500366
v -0.05599976 -0.2069998 -0.03500366
v -0.05599976 0.04300022 -0.03500366
v -0.05599976 0.04300022 -0.5350037
v -0.05599976 -0.2069998 -0.5350037
v -0.05599976 -0.2069998 -1.035004
v -0.05599976 0.04300022 -1.035004
v -0.1184998 0.04300022 -0.5350037
v -0.1184998 0.04300022 -0.03500366
v -0.05599976 2.043 -0.03500366
v -0.05599976 2.043 0.4649963
v -0.1184998 2.043 0.4649963
v -0.1184998 2.043 -0.03500366
v -0.2434998 0.04300022 -0.03500366
v -0.1809998 0.04300022 -0.5350037
v -0.1809998 0.04300022 -0.03500366
v -0.1809998 2.043 -0.03500366
v -0.1809998 2.043 0.4649963
v -0.2434998 2.043 0.4649963
v -0.3059998 2.043 0.4649963
v -0.3059998 2.043 -0.03500366
v -0.2434998 2.043 -0.03500366
v -0.3059998 2.043 -1.535004
v -0.2434998 2.043 -1.535004
v -0.1809998 2.043 -1.535004
v -0.1809998 0.04300022 -1.035004
v -0.2434998 0.04300022 -0.5350037
v -0.2434998 0.04300022 -1.035004
v -0.1184998 2.043 -1.535004
v -0.05599976 2.043 -1.535004
v -0.1184998 0.04300022 -1.035004
v -0.1809998 -0.9569998 -1.035004
v -0.1184998 -0.9569998 -1.035004
v -0.1809998 -0.9569998 -0.5350037
v -0.1184998 -0.9569998 -0.5350037
v -0.2434998 -0.9569998 -1.035004
v -0.2434998 -0.9569998 -0.5350037
v -0.2434998 -0.9569998 -0.03500366
v -0.1809998 -0.9569998 -0.03500366
v -0.1184998 -0.9569998 -0.03500366
v -0.3059998 1.543 -1.535004
v -0.1809998 1.543 -1.035004
v -0.3059998 1.543 -1.035004
v -0.2434998 1.543 -1.035004
v -0.2434998 1.543 -1.535004
v -0.1184998 1.543 -1.035004
v -0.1809998 1.543 -1.535004
v -0.05599976 1.543 -1.035004
v -0.1184998 1.543 -1.535004
v -0.05599976 1.543 -1.535004
v -0.1809998 1.543 -0.03500366
v -0.2434998 1.543 -0.03500366
v -0.3059998 2.043 -1.035004
v -0.3059998 1.543 -0.03500366
v -0.1184998 1.543 -0.03500366
v -0.05599976 1.543 -0.03500366
v -0.05599976 2.043 -1.035004
v -0.2434998 2.043 -1.035004
v -0.1809998 2.043 -1.035004
v -0.1184998 2.043 -1.035004

vt 0 0
vt -0.35 0
vt 0 0.1
vt -0.35 0.1
vt -1 0
vt -1 0.1
vt 0.35 0
vt 0.35 0.1
vt 1 0
vt 1 0.1
vt 0 -1
vt 0.35 -1
vt -0.35 -1
vt -0.3 0
vt 0 1.5
vt -0.3 1.5
vt -0.09999996 0
vt -0.09999996 1.5
vt 0.3 0
vt 0.3 1.5
vt 0.09999996 0
vt 0.09999996 1.5
vt 0 -0.09999996
vt 0.3 -0.09999996
vt -0.3 -0.09999996
vt -0.35 0
vt 0 0.0999999
vt -0.35 0.0999999
vt -1 0.0999999
vt 0.35 0
vt 0.35 0.0999999
vt 1 0.0999999
vt 0.35 -1
vt -0.35 -1
vt 0 0.25
vt -0.0625 0
vt -0.0625 0.25
vt -0.0625 0.5
vt 0 0.5
vt -0.125 0
vt -0.125 0.25
vt -0.1875 0
vt -0.25 0
vt -0.25 0.25
vt -0.1875 0.25
vt -0.25 0.5
vt -0.1875 0.5
vt -0.125 0.5
vt -0.125 0.75
vt -0.25 0.75
vt -0.1875 0.75
vt -0.25 1
vt -0.1875 1
vt -0.125 1
vt 0 0.75
vt -0.0625 0.75
vt -0.0625 1
vt 0 1
vt -0.5 0
vt -0.5 0.25
vt -1.5 0
vt -2 0
vt -2 0.25
vt -1.5 0.25
vt -1 0.25
vt -1.5 0.5
vt -2 0.5
vt -2 0.75
vt -2 1
vt -1.5 1
vt -1.5 0.75
vt -1 1
vt -1 0.75
vt -0.5 0.5
vt -1 0.5
vt -0.5 1
vt -0.5 0.75
vt 0.1875 0.25
vt 0.1875 0
vt 0.1875 0.5
vt 0.25 0.5
vt 0.25 0.25
vt 0.25 0
vt 0.0625 0.25
vt 0.0625 0
vt 0.0625 0.5
vt 0.125 0.5
vt 0.125 0.25
vt 0.125 0
vt 0.0625 0.75
vt 0.0625 1
vt 0.125 1
vt 0.125 0.75
vt 0.1875 0.75
vt 0.1875 1
vt 0.25 1
vt 0.25 0.75
vt 1 0.25
vt 1.5 0.25
vt 1.5 0
vt 1 0.5
vt 1.5 0.5
vt 2 0.5
vt 2 0.25
vt 2 0
vt 0.5 0.25
vt 0.5 0
vt 0.5 0.5
vt 0.5 0.75
vt 0.5 1
vt 1 1
vt 1 0.75
vt 1.5 0.75
vt 1.5 1
vt 2 1
vt 2 0.75
vt 0.0625 -1
vt 0.0625 -0.5
vt 0 -0.5
vt 0.1875 -0.5
vt 0.25 -0.5
vt 0.125 -1
vt 0.125 -0.5
vt 0.25 -2
vt 0.1875 -2
vt 0.125 -2
vt 0.125 -1.5
vt 0.1875 -1
vt 0.25 -1
vt 0.25 -1.5
vt 0.1875 -1.5
vt 0.0625 -2
vt 0 -2
vt 0 -1.5
vt 0.0625 -1.5
vt -0.125 -2
vt -0.125 -1.5
vt -0.0625 -1.5
vt -0.0625 -2
vt -0.125 -1
vt -0.0625 -1
vt -0.25 -2
vt -0.25 -1.5
vt -0.1875 -1.5
vt -0.1875 -2
vt -0.25 -1
vt -0.1875 -1
vt -0.25 -0.5
vt -0.1875 -0.5
vt -0.125 -0.5
vt -0.0625 -0.5
vt 0.25 2.5
vt -0.125 2.5
vt -1.5 2.5
vt -2 2.5
vt -0.1875 2.5
vt -0.25 2.5
vt 0.1875 2.5
vt -0.0625 2.5
vt 0.125 2.5
vt 0 2.5
vt 0.0625 2.5
vt 2 2.5
vt 1.5 2.5
vt 0.25 3
vt -0.125 3
vt -0.1875 3
vt -1.5 3
vt -2 3
vt -0.25 3
vt 0.1875 3
vt -0.0625 3
vt 0.125 3
vt 0 3
vt 0.0625 3
vt 2 3
vt 1.5 3
vt -0.5 2.5
vt -0.5 3
vt 0.5 3
vt 0.5 2.5

vn 0 0 1
vn -1 0 0
vn 0 0 -1
vn 1 0 0
vn 0 1 0
vn 0 -1 0

usemtl ProBuilderDefault
f 43/44/1 42/43/1 41/42/1
f 43/44/1 41/42/1 44/45/1
f 44/45/1 41/42/1 39/40/1
f 44/45/1 39/40/1 40/41/1
f 40/41/1 39/40/1 35/36/1
f 40/41/1 35/36/1 36/37/1
f 36/37/1 35/36/1 33/1/1
f 36/37/1 33/1/1 34/35/1
f 45/46/1 43/44/1 44/45/1
f 45/46/1 44/45/1 46/47/1
f 46/47/1 44/45/1 40/41/1
f 46/47/1 40/41/1 47/48/1
f 47/48/1 40/41/1 36/37/1
f 47/48/1 36/37/1 37/38/1
f 37/38/1 36/37/1 34/35/1
f 37/38/1 34/35/1 38/39/1
f 49/50/1 45/46/1 46/47/1
f 49/50/1 46/47/1 50/51/1
f 50/51/1 46/47/1 47/48/1
f 50/51/1 47/48/1 48/49/1
f 48/49/1 47/48/1 37/38/1
f 48/49/1 37/38/1 55/56/1
f 55/56/1 37/38/1 38/39/1
f 55/56/1 38/39/1 54/55/1
f 51/52/1 49/50/1 50/51/1
f 51/52/1 50/51/1 52/53/1
f 52/53/1 50/51/1 48/49/1
f 52/53/1 48/49/1 53/54/1
f 53/54/1 48/49/1 55/56/1
f 53/54/1 55/56/1 56/57/1
f 56/57/1 55/56/1 54/55/1
f 56/57/1 54/55/1 57/58/1
f 124/167/1 51/52/1 52/53/1
f 124/167/1 125/170/1 51/52/1
f 123/166/1 52/53/1 53/54/1
f 123/166/1 124/167/1 52/53/1
f 117/172/1 53/54/1 56/57/1
f 117/172/1 123/166/1 53/54/1
f 116/174/1 56/57/1 57/58/1
f 116/174/1 117/172/1 56/57/1
f 82/35/3 81/1/3 83/84/3
f 81/1/3 84/85/3 83/84/3
f 83/84/3 84/85/3 88/88/3
f 84/85/3 89/89/3 88/88/3
f 88/88/3 89/89/3 78/78/3
f 89/89/3 79/79/3 78/78/3
f 78/78/3 79/79/3 63/82/3
f 79/79/3 62/83/3 63/82/3
f 85/39/3 82/35/3 86/86/3
f 82/35/3 83/84/3 86/86/3
f 86/86/3 83/84/3 87/87/3
f 83/84/3 88/88/3 87/87/3
f 87/87/3 88/88/3 80/80/3
f 88/88/3 78/78/3 80/80/3
f 80/80/3 78/78/3 67/81/3
f 78/78/3 63/82/3 67/81/3
f 90/55/3 85/39/3 91/90/3
f 85/39/3 86/86/3 91/90/3
f 91/90/3 86/86/3 95/93/3
f 86/86/3 87/87/3 95/93/3
f 95/93/3 87/87/3 96/94/3
f 87/87/3 80/80/3 96/94/3
f 96/94/3 80/80/3 68/97/3
f 80/80/3 67/81/3 68/97/3
f 92/58/3 90/55/3 93/91/3
f 90/55/3 91/90/3 93/91/3
f 93/91/3 91/90/3 94/92/3
f 91/90/3 95/93/3 94/92/3
f 94/92/3 95/93/3 97/95/3
f 95/93/3 96/94/3 97/95/3
f 97/95/3 96/94/3 69/96/3
f 96/94/3 68/97/3 69/96/3
f 154/162/3 92/58/3 93/91/3
f 154/162/3 155/161/3 92/58/3
f 152/160/3 93/91/3 94/92/3
f 152/160/3 154/162/3 93/91/3
f 150/158/3 94/92/3 97/95/3
f 150/158/3 152/160/3 94/92/3
f 146/152/3 97/95/3 69/96/3
f 146/152/3 150/158/3 97/95/3
f 134/175/3 155/161/3 154/162/3
f 134/175/3 135/174/3 155/161/3
f 130/173/3 154/162/3 152/160/3
f 130/173/3 134/175/3 154/162/3
f 129/171/3 152/160/3 150/158/3
f 129/171/3 130/173/3 152/160/3
f 128/165/3 150/158/3 146/152/3
f 128/165/3 129/171/3 150/158/3
f 124/79/5 127/120/5 126/121/5
f 124/79/5 126/121/5 125/83/5
f 123/89/5 122/123/5 127/120/5
f 123/89/5 127/120/5 124/79/5
f 117/85/5 118/118/5 122/123/5
f 117/85/5 122/123/5 123/89/5
f 116/1/5 115/119/5 118/118/5
f 116/1/5 118/118/5 117/85/5
f 122/123/5 165/135/5 164/127/5
f 122/123/5 118/118/5 165/135/5
f 118/118/5 162/134/5 165/135/5
f 118/118/5 115/119/5 162/134/5
f 127/120/5 164/127/5 163/131/5
f 127/120/5 122/123/5 164/127/5
f 126/121/5 163/131/5 158/130/5
f 126/121/5 127/120/5 163/131/5
f 163/131/5 129/125/5 128/124/5
f 163/131/5 128/124/5 158/130/5
f 164/127/5 130/126/5 129/125/5
f 164/127/5 129/125/5 163/131/5
f 165/135/5 134/132/5 130/126/5
f 165/135/5 130/126/5 164/127/5
f 162/134/5 135/133/5 134/132/5
f 162/134/5 134/132/5 165/135/5
f 132/128/5 133/131/5 70/130/5
f 132/128/5 70/130/5 72/129/5
f 119/120/5 132/128/5 72/129/5
f 119/120/5 72/129/5 76/121/5
f 121/123/5 120/122/5 132/128/5
f 121/123/5 132/128/5 119/120/5
f 120/122/5 131/127/5 133/131/5
f 120/122/5 133/131/5 132/128/5
f 114/118/5 113/117/5 120/122/5
f 114/118/5 120/122/5 121/123/5
f 113/117/5 136/135/5 131/127/5
f 113/117/5 131/127/5 120/122/5
f 108/119/5 109/11/5 113/117/5
f 108/119/5 113/117/5 114/118/5
f 109/11/5 112/134/5 136/135/5
f 109/11/5 136/135/5 113/117/5
f 118/175/3 108/58/3 114/91/3
f 118/175/3 115/174/3 108/58/3
f 122/173/3 114/91/3 121/92/3
f 122/173/3 118/175/3 114/91/3
f 127/171/3 121/92/3 119/95/3
f 127/171/3 122/173/3 121/92/3
f 126/165/3 119/95/3 76/96/3
f 126/165/3 127/171/3 119/95/3
f 149/156/1 70/52/1 133/53/1
f 149/156/1 148/157/1 70/52/1
f 147/153/1 133/53/1 131/54/1
f 147/153/1 149/156/1 133/53/1
f 151/159/1 131/54/1 136/57/1
f 151/159/1 147/153/1 131/54/1
f 153/161/1 136/57/1 112/58/1
f 153/161/1 151/159/1 136/57/1
f 160/151/6 147/137/6 151/138/6
f 160/151/6 156/150/6 147/137/6
f 161/119/6 151/138/6 153/134/6
f 161/119/6 160/151/6 151/138/6
f 156/150/6 149/144/6 147/137/6
f 156/150/6 157/149/6 149/144/6
f 157/149/6 148/143/6 149/144/6
f 157/149/6 159/148/6 148/143/6
f 69/69/2 68/68/2 71/71/2
f 69/69/2 71/71/2 70/70/2
f 70/70/2 71/71/2 73/73/2
f 70/70/2 73/73/2 72/72/2
f 72/72/2 73/73/2 77/77/2
f 72/72/2 77/77/2 76/76/2
f 76/76/2 77/77/2 49/55/2
f 76/76/2 49/55/2 51/58/2
f 77/77/2 74/74/2 45/39/2
f 77/77/2 45/39/2 49/55/2
f 73/73/2 75/75/2 74/74/2
f 73/73/2 74/74/2 77/77/2
f 71/71/2 66/66/2 75/75/2
f 71/71/2 75/75/2 73/73/2
f 68/68/2 67/67/2 66/66/2
f 68/68/2 66/66/2 71/71/2
f 67/67/2 63/63/2 64/64/2
f 67/67/2 64/64/2 66/66/2
f 66/66/2 64/64/2 65/65/2
f 66/66/2 65/65/2 75/75/2
f 64/64/2 61/61/2 60/5/2
f 64/64/2 60/5/2 65/65/2
f 63/63/2 62/62/2 61/61/2
f 63/63/2 61/61/2 64/64/2
f 65/65/2 60/5/2 58/59/2
f 65/65/2 58/59/2 59/60/2
f 75/75/2 65/65/2 59/60/2
f 75/75/2 59/60/2 74/74/2
f 74/74/2 59/60/2 43/35/2
f 74/74/2 43/35/2 45/39/2
f 59/60/2 58/59/2 42/1/2
f 59/60/2 42/1/2 43/35/2
f 4/4/1 2/2/1 1/1/1
f 1/1/1 3/3/1 4/4/1
f 6/6/2 5/5/2 2/1/2
f 2/1/2 4/3/2 6/6/2
f 8/3/3 7/1/3 5/7/3
f 5/7/3 6/8/3 8/3/3
f 3/3/4 1/1/4 7/9/4
f 7/9/4 8/10/4 3/3/4
f 6/12/5 4/7/5 3/1/5
f 3/1/5 8/11/5 6/12/5
f 2/2/6 5/13/6 7/11/6
f 7/11/6 1/1/6 2/2/6
f 12/16/1 10/14/1 9/1/1
f 9/1/1 11/15/1 12/16/1
f 14/18/2 13/17/2 10/1/2
f 10/1/2 12/15/2 14/18/2
f 16/15/3 15/1/3 13/19/3
f 13/19/3 14/20/3 16/15/3
f 11/15/4 9/1/4 15/21/4
f 15/21/4 16/22/4 11/15/4
f 14/24/5 12/19/5 11/1/5
f 11/1/5 16/23/5 14/24/5
f 10/14/6 13/25/6 15/23/6
f 15/23/6 9/1/6 10/14/6
f 20/28/1 18/26/1 17/1/1
f 17/1/1 19/27/1 20/28/1
f 22/29/2 21/5/2 18/1/2
f 18/1/2 20/27/2 22/29/2
f 24/27/3 23/1/3 21/30/3
f 21/30/3 22/31/3 24/27/3
f 19/27/4 17/1/4 23/9/4
f 23/9/4 24/32/4 19/27/4
f 22/33/5 20/30/5 19/1/5
f 19/1/5 24/11/5 22/33/5
f 18/26/6 21/34/6 23/11/6
f 23/11/6 17/1/6 18/26/6
f 28/16/1 26/14/1 25/1/1
f 25/1/1 27/15/1 28/16/1
f 30/18/2 29/17/2 26/1/2
f 26/1/2 28/15/2 30/18/2
f 32/15/3 31/1/3 29/19/3
f 29/19/3 30/20/3 32/15/3
f 27/15/4 25/1/4 31/21/4
f 31/21/4 32/22/4 27/15/4
f 30/24/5 28/19/5 27/1/5
f 27/1/5 32/23/5 30/24/5
f 26/14/6 29/25/6 31/23/6
f 31/23/6 25/1/6 26/14/6
f 100/99/4 99/98/4 98/9/4
f 98/9/4 101/100/4 100/99/4
f 103/102/4 102/101/4 99/98/4
f 99/98/4 100/99/4 103/102/4
f 85/103/4 103/102/4 100/99/4
f 100/99/4 82/104/4 85/103/4
f 82/104/4 100/99/4 101/100/4
f 101/100/4 81/105/4 82/104/4
f 104/106/4 34/35/4 33/1/4
f 33/1/4 105/107/4 104/106/4
f 106/108/4 38/39/4 34/35/4
f 34/35/4 104/106/4 106/108/4
f 102/101/4 106/108/4 104/106/4
f 104/106/4 99/98/4 102/101/4
f 99/98/4 104/106/4 105/107/4
f 105/107/4 98/9/4 99/98/4
f 107/109/4 54/55/4 38/39/4
f 38/39/4 106/108/4 107/109/4
f 108/110/4 57/58/4 54/55/4
f 54/55/4 107/109/4 108/110/4
f 109/111/4 108/110/4 107/109/4
f 107/109/4 110/112/4 109/111/4
f 110/112/4 107/109/4 106/108/4
f 106/108/4 102/101/4 110/112/4
f 111/113/4 110/112/4 102/101/4
f 102/101/4 103/102/4 111/113/4
f 112/114/4 109/111/4 110/112/4
f 110/112/4 111/113/4 112/114/4
f 92/115/4 112/114/4 111/113/4
f 111/113/4 90/116/4 92/115/4
f 90/116/4 111/113/4 103/102/4
f 103/102/4 85/103/4 90/116/4
f 138/138/6 137/137/6 89/136/6
f 89/136/6 84/139/6 138/138/6
f 140/141/6 139/140/6 137/137/6
f 137/137/6 138/138/6 140/141/6
f 98/11/6 140/141/6 138/138/6
f 138/138/6 101/134/6 98/11/6
f 101/134/6 138/138/6 84/139/6
f 84/139/6 81/133/6 101/134/6
f 141/144/6 61/143/6 62/142/6
f 62/142/6 79/145/6 141/144/6
f 142/147/6 60/146/6 61/143/6
f 61/143/6 141/144/6 142/147/6
f 139/140/6 142/147/6 141/144/6
f 141/144/6 137/137/6 139/140/6
f 137/137/6 141/144/6 79/145/6
f 79/145/6 89/136/6 137/137/6
f 143/149/6 58/148/6 60/146/6
f 60/146/6 142/147/6 143/149/6
f 41/42/6 42/43/6 58/148/6
f 58/148/6 143/149/6 41/42/6
f 39/40/6 41/42/6 143/149/6
f 143/149/6 144/150/6 39/40/6
f 144/150/6 143/149/6 142/147/6
f 142/147/6 139/140/6 144/150/6
f 145/151/6 144/150/6 139/140/6
f 139/140/6 140/141/6 145/151/6
f 35/36/6 39/40/6 144/150/6
f 144/150/6 145/151/6 35/36/6
f 33/1/6 35/36/6 145/151/6
f 145/151/6 105/119/6 33/1/6
f 105/119/6 145/151/6 140/141/6
f 140/141/6 98/11/6 105/119/6
f 146/155/2 69/69/2 70/70/2
f 70/70/2 148/154/2 146/155/2
f 153/164/4 112/114/4 92/115/4
f 92/115/4 155/163/4 153/164/4
f 127/167/1 157/156/1 156/153/1
f 156/153/1 122/166/1 127/167/1
f 128/169/2 146/155/2 148/154/2
f 148/154/2 158/168/2 128/169/2
f 126/170/1 159/157/1 157/156/1
f 157/156/1 127/167/1 126/170/1
f 122/166/1 156/153/1 160/159/1
f 160/159/1 118/172/1 122/166/1
f 118/172/1 160/159/1 161/161/1
f 161/161/1 115/174/1 118/172/1
f 162/177/4 153/164/4 155/163/4
f 155/163/4 135/176/4 162/177/4
f 126/179/2 158/168/2 148/154/2
f 148/154/2 159/178/2 126/179/2
f 161/181/4 153/164/4 162/177/4
f 162/177/4 115/180/4 161/181/4
f 126/179/2 76/76/2 51/58/2
f 51/58/2 125/174/2 126/179/2
f 116/174/4 57/58/4 108/110/4
f 108/110/4 115/180/4 116/174/4

